/* XPM */
static char *XPM_X[] = {
/* columns rows colors chars-per-pixel */
"16 16 2 1",
"  c red",
". c None",
/* pixels */
"................",
"................",
"..... ..... ....",
"...... ... .....",
"...... ... .....",
"....... . ......",
"........ .......",
"....... . ......",
"...... ... .....",
"...... ... .....",
"..... ..... ....",
"................",
"................",
"................",
"................",
"................"
};